<?xml version="1.0" encoding="UTF-8" standalone="no"?>
<!-- Created with Inkscape (http://www.inkscape.org/) -->

<svg
   width="857.46393mm"
   height="412.05835mm"
   viewBox="0 0 857.46393 412.05835"
   version="1.1"
   id="svg21412"
   inkscape:version="1.2 (dc2aedaf03, 2022-05-15)"
   sodipodi:docname="notext.svg"
   xml:space="preserve"
   inkscape:export-filename="..\..\uvs-mailbild-BV.png"
   inkscape:export-xdpi="96"
   inkscape:export-ydpi="96"
   xmlns:inkscape="http://www.inkscape.org/namespaces/inkscape"
   xmlns:sodipodi="http://sodipodi.sourceforge.net/DTD/sodipodi-0.dtd"
   xmlns="http://www.w3.org/2000/svg"
   xmlns:svg="http://www.w3.org/2000/svg"><sodipodi:namedview
     id="namedview21414"
     pagecolor="#505050"
     bordercolor="#ffffff"
     borderopacity="1"
     inkscape:showpageshadow="0"
     inkscape:pageopacity="0"
     inkscape:pagecheckerboard="1"
     inkscape:deskcolor="#505050"
     inkscape:document-units="mm"
     showgrid="false"
     inkscape:zoom="0.25323116"
     inkscape:cx="1109.6581"
     inkscape:cy="1155.0711"
     inkscape:window-width="1920"
     inkscape:window-height="991"
     inkscape:window-x="-9"
     inkscape:window-y="-9"
     inkscape:window-maximized="1"
     inkscape:current-layer="layer1" /><defs
     id="defs21409"><rect
       x="4612.3867"
       y="6128.7881"
       width="852.97565"
       height="1374.2385"
       id="rect1786" /><rect
       x="-442.28369"
       y="-1808.6243"
       width="3743.6155"
       height="1437.422"
       id="rect431" /><rect
       x="-2028.2841"
       y="-2042.5948"
       width="105.9343"
       height="70.157478"
       id="rect328" /><rect
       x="-1810.8308"
       y="-1812.2271"
       width="228.97166"
       height="146.59772"
       id="rect106" /><rect
       x="-1919.1952"
       y="-2148.2351"
       width="884.56738"
       height="631.8338"
       id="rect100" /><rect
       x="-147.9939"
       y="-739.96942"
       width="275.04523"
       height="166.84216"
       id="rect7325" /><rect
       x="-286.91269"
       y="-725.30963"
       width="319.02457"
       height="158.46515"
       id="rect7315" /><rect
       x="-216.40616"
       y="-658.29358"
       width="443.98166"
       height="207.33105"
       id="rect7309" /><rect
       x="-231.76401"
       y="-667.36865"
       width="385.34256"
       height="216.40616"
       id="rect7303" /><rect
       x="-303.66669"
       y="-645.02997"
       width="332.98624"
       height="173.82301"
       id="rect7293" /><rect
       x="-404.19086"
       y="-711.34796"
       width="220.59467"
       height="159.86131"
       id="rect7287" /><rect
       x="-292.22314"
       y="-817.43506"
       width="1283.4125"
       height="718.711"
       id="rect7281" /><rect
       x="-35.540653"
       y="-691.0683"
       width="1216.2802"
       height="473.8754"
       id="rect7225" /><linearGradient
       id="linearGradient5686"
       inkscape:swatch="solid"><stop
         style="stop-color:#0000ff;stop-opacity:1;"
         offset="0"
         id="stop5684" /></linearGradient><clipPath
       clipPathUnits="userSpaceOnUse"
       id="clipPath755"><rect
         style="fill:#999999;stroke-width:0.1"
         id="rect757"
         width="350.01785"
         height="162.99338"
         x="-278.09769"
         y="-19.674917"
         transform="rotate(45)" /></clipPath><clipPath
       clipPathUnits="userSpaceOnUse"
       id="clipPath850"><rect
         style="display:inline;fill:#999999;stroke-width:0.1"
         id="rect852"
         width="350.01785"
         height="162.99338"
         x="-25.269232"
         y="-92.183968"
         transform="rotate(135)" /></clipPath><clipPath
       clipPathUnits="userSpaceOnUse"
       id="clipPath967"><rect
         style="display:inline;fill:#999999;stroke-width:0.1"
         id="rect969"
         width="350.01785"
         height="162.99338"
         x="-473.22198"
         y="157.64864"
         transform="rotate(45)" /></clipPath><clipPath
       clipPathUnits="userSpaceOnUse"
       id="clipPath1015"><rect
         style="display:inline;fill:#999999;stroke-width:0.156836"
         id="rect1017"
         width="548.95319"
         height="255.63191"
         x="-401.45981"
         y="-411.81332"
         transform="rotate(135)" /></clipPath><clipPath
       clipPathUnits="userSpaceOnUse"
       id="clipPath850-6"><rect
         style="display:inline;fill:#999999;stroke-width:0.1"
         id="rect852-7"
         width="350.01785"
         height="162.99338"
         x="-25.269232"
         y="-92.183968"
         transform="rotate(135)" /></clipPath><clipPath
       clipPathUnits="userSpaceOnUse"
       id="clipPath1015-9"><rect
         style="display:inline;fill:#999999;stroke-width:0.156836"
         id="rect1017-2"
         width="548.95319"
         height="255.63191"
         x="-401.45981"
         y="-411.81332"
         transform="rotate(135)" /></clipPath><clipPath
       clipPathUnits="userSpaceOnUse"
       id="clipPath967-3"><rect
         style="display:inline;fill:#999999;stroke-width:0.1"
         id="rect969-3"
         width="350.01785"
         height="162.99338"
         x="-473.22198"
         y="157.64864"
         transform="rotate(45)" /></clipPath><clipPath
       clipPathUnits="userSpaceOnUse"
       id="clipPath850-6-3"><rect
         style="display:inline;fill:#999999;stroke-width:0.1"
         id="rect852-7-8"
         width="350.01785"
         height="162.99338"
         x="-25.269232"
         y="-92.183968"
         transform="rotate(135)" /></clipPath><clipPath
       clipPathUnits="userSpaceOnUse"
       id="clipPath3638"><rect
         style="fill:#999999;stroke-width:0.1"
         id="rect3640"
         width="350.01785"
         height="162.99338"
         x="-278.09769"
         y="-19.674873"
         transform="rotate(45)" /></clipPath><clipPath
       clipPathUnits="userSpaceOnUse"
       id="clipPath3642"><rect
         style="fill:#999999;stroke-width:0.1"
         id="rect3644"
         width="350.01785"
         height="162.99338"
         x="-278.09769"
         y="-19.674873"
         transform="rotate(45)" /></clipPath><clipPath
       clipPathUnits="userSpaceOnUse"
       id="clipPath4465"><rect
         style="fill:#999999;stroke-width:0.1"
         id="rect4467"
         width="350.01785"
         height="162.99338"
         x="-278.09769"
         y="-19.674891"
         transform="rotate(45)" /></clipPath><clipPath
       clipPathUnits="userSpaceOnUse"
       id="clipPath4469"><rect
         style="fill:#999999;stroke-width:0.1"
         id="rect4471"
         width="350.01785"
         height="162.99338"
         x="-278.09769"
         y="-19.674891"
         transform="rotate(45)" /></clipPath><clipPath
       clipPathUnits="userSpaceOnUse"
       id="clipPath850-8"><rect
         style="display:inline;fill:#999999;stroke-width:0.1"
         id="rect852-9"
         width="350.01785"
         height="162.99338"
         x="-25.269232"
         y="-92.183968"
         transform="rotate(135)" /></clipPath><clipPath
       clipPathUnits="userSpaceOnUse"
       id="clipPath755-7"><rect
         style="fill:#999999;stroke-width:0.1"
         id="rect757-8"
         width="350.01785"
         height="162.99338"
         x="-278.09769"
         y="-19.674917"
         transform="rotate(45)" /></clipPath><clipPath
       clipPathUnits="userSpaceOnUse"
       id="clipPath1015-2"><rect
         style="display:inline;fill:#999999;stroke-width:0.156836"
         id="rect1017-3"
         width="548.95319"
         height="255.63191"
         x="-401.45981"
         y="-411.81332"
         transform="rotate(135)" /></clipPath><clipPath
       clipPathUnits="userSpaceOnUse"
       id="clipPath967-7"><rect
         style="display:inline;fill:#999999;stroke-width:0.1"
         id="rect969-6"
         width="350.01785"
         height="162.99338"
         x="-473.22198"
         y="157.64864"
         transform="rotate(45)" /></clipPath><clipPath
       clipPathUnits="userSpaceOnUse"
       id="clipPath850-82"><rect
         style="display:inline;fill:#999999;stroke-width:0.1"
         id="rect852-77"
         width="350.01785"
         height="162.99338"
         x="-25.269232"
         y="-92.183968"
         transform="rotate(135)" /></clipPath><clipPath
       clipPathUnits="userSpaceOnUse"
       id="clipPath755-76"><rect
         style="fill:#999999;stroke-width:0.1"
         id="rect757-6"
         width="350.01785"
         height="162.99338"
         x="-278.09769"
         y="-19.674917"
         transform="rotate(45)" /></clipPath><clipPath
       clipPathUnits="userSpaceOnUse"
       id="clipPath1015-7"><rect
         style="display:inline;fill:#999999;stroke-width:0.156836"
         id="rect1017-0"
         width="548.95319"
         height="255.63191"
         x="-401.45981"
         y="-411.81332"
         transform="rotate(135)" /></clipPath><clipPath
       clipPathUnits="userSpaceOnUse"
       id="clipPath967-1"><rect
         style="display:inline;fill:#999999;stroke-width:0.1"
         id="rect969-4"
         width="350.01785"
         height="162.99338"
         x="-473.22198"
         y="157.64864"
         transform="rotate(45)" /></clipPath><clipPath
       id="ccp0.5789936042867552"><rect
         x="-0.5"
         y="-0.5"
         width="29.4625"
         height="14.5"
         id="rect4015" /></clipPath><clipPath
       id="ccp0.6587704403715304"><rect
         x="-0.5"
         y="-0.5"
         width="42.837502"
         height="51.287502"
         id="rect4020" /></clipPath><clipPath
       id="ccp0.5789936042867552-5"><rect
         x="-0.5"
         y="-0.5"
         width="29.4625"
         height="14.5"
         id="rect4245" /></clipPath><clipPath
       id="ccp0.6587704403715304-0"><rect
         x="-0.5"
         y="-0.5"
         width="42.837502"
         height="51.287502"
         id="rect4250" /></clipPath><clipPath
       id="ccp0.5789936042867552-5-6"><rect
         x="-0.5"
         y="-0.5"
         width="29.4625"
         height="14.5"
         id="rect4245-0" /></clipPath><clipPath
       id="ccp0.6587704403715304-0-3"><rect
         x="-0.5"
         y="-0.5"
         width="42.837502"
         height="51.287502"
         id="rect4250-6" /></clipPath><clipPath
       id="clipPath4314-2"><rect
         x="-0.5"
         y="-0.5"
         width="29.4625"
         height="14.5"
         id="rect4312-5" /></clipPath><clipPath
       id="clipPath4319-0"><rect
         x="-0.5"
         y="-0.5"
         width="42.837502"
         height="51.287502"
         id="rect4317-7" /></clipPath><clipPath
       clipPathUnits="userSpaceOnUse"
       id="clipPath4884"><rect
         style="fill:#000000;fill-opacity:1;stroke:#0081c8;stroke-width:0.55028;paint-order:stroke markers fill"
         id="rect4886"
         width="108.6302"
         height="124.89221"
         x="266.56485"
         y="-16.374687" /></clipPath><clipPath
       clipPathUnits="userSpaceOnUse"
       id="clipPath4898"><rect
         style="fill:#000000;fill-opacity:1;stroke:#0081c8;stroke-width:12.9998;paint-order:stroke markers fill"
         id="rect4900"
         width="2511.2783"
         height="1552.0554"
         x="-865.4436"
         y="3546.8237"
         transform="scale(1,-1)" /></clipPath><clipPath
       clipPathUnits="userSpaceOnUse"
       id="clipPath4904"><rect
         style="fill:#000000;fill-opacity:1;stroke:#0081c8;stroke-width:18.5711;paint-order:stroke markers fill"
         id="rect4906"
         width="4280.7754"
         height="3314.8564"
         x="-2740.5386"
         y="4364.8418"
         transform="scale(1,-1)" /></clipPath><clipPath
       clipPathUnits="userSpaceOnUse"
       id="clipPath4908"><rect
         style="fill:#000000;fill-opacity:1;stroke:#0081c8;stroke-width:12.9998;paint-order:stroke markers fill"
         id="rect4910"
         width="2996.5427"
         height="2320.3997"
         x="-1126.6805"
         y="2777.2415"
         transform="scale(1,-1)" /></clipPath><clipPath
       clipPathUnits="userSpaceOnUse"
       id="clipPath4884-8"><rect
         style="fill:#000000;fill-opacity:1;stroke:#0081c8;stroke-width:0.55028;paint-order:stroke markers fill"
         id="rect4886-3"
         width="108.6302"
         height="124.89221"
         x="266.56485"
         y="-16.374687" /></clipPath><clipPath
       id="ccp0.5789936042867552-5-6-4"><rect
         x="-0.5"
         y="-0.5"
         width="29.4625"
         height="14.5"
         id="rect4245-0-4" /></clipPath><clipPath
       id="ccp0.6587704403715304-0-3-9"><rect
         x="-0.5"
         y="-0.5"
         width="42.837502"
         height="51.287502"
         id="rect4250-6-9" /></clipPath><clipPath
       id="clipPath4588"><rect
         x="-0.5"
         y="-0.5"
         width="29.4625"
         height="14.5"
         id="rect4586" /></clipPath><clipPath
       id="clipPath4593"><rect
         x="-0.5"
         y="-0.5"
         width="42.837502"
         height="51.287502"
         id="rect4591" /></clipPath><clipPath
       clipPathUnits="userSpaceOnUse"
       id="clipPath5178"><rect
         style="fill:#000000;fill-opacity:1;stroke:#0081c8;stroke-width:0.376324;paint-order:stroke markers fill"
         id="rect5180"
         width="71.175766"
         height="60.054554"
         x="296.73041"
         y="13.673874" /></clipPath><clipPath
       id="ccp0.9487490838075121"><rect
         x="-0.5"
         y="-0.5"
         width="32.375"
         height="14.5"
         id="rect5286" /></clipPath><clipPath
       id="ccp0.09974951631127116"><rect
         x="-0.5"
         y="-0.5"
         width="42.837502"
         height="51.287502"
         id="rect5291" /></clipPath><clipPath
       clipPathUnits="userSpaceOnUse"
       id="clipPath5364"><rect
         style="fill:#000000;fill-opacity:1;stroke:#0081c8;stroke-width:4.72182;paint-order:stroke markers fill"
         id="rect5366"
         width="47.854927"
         height="61.175369"
         x="297.32889"
         y="8.9686089" /></clipPath><inkscape:path-effect
       effect="mirror_symmetry"
       start_point="-59.99615,77.313453"
       end_point="-59.99615,273.83585"
       center_point="-59.99615,175.57465"
       id="path-effect2482"
       is_visible="true"
       lpeversion="1.2"
       lpesatellites=""
       mode="free"
       discard_orig_path="true"
       fuse_paths="false"
       oposite_fuse="false"
       split_items="false"
       split_open="false"
       link_styles="false" /><inkscape:path-effect
       effect="mirror_symmetry"
       start_point="-59.99615,77.313453"
       end_point="-59.99615,273.83585"
       center_point="-59.99615,175.57465"
       id="path-effect2482-3"
       is_visible="true"
       lpeversion="1.2"
       lpesatellites=""
       mode="free"
       discard_orig_path="true"
       fuse_paths="false"
       oposite_fuse="false"
       split_items="false"
       split_open="false"
       link_styles="false" /><inkscape:path-effect
       effect="mirror_symmetry"
       start_point="-59.99615,77.313453"
       end_point="-59.99615,273.83585"
       center_point="-59.99615,175.57465"
       id="path-effect2482-9"
       is_visible="true"
       lpeversion="1.2"
       lpesatellites=""
       mode="free"
       discard_orig_path="true"
       fuse_paths="false"
       oposite_fuse="false"
       split_items="false"
       split_open="false"
       link_styles="false" /><inkscape:path-effect
       effect="mirror_symmetry"
       start_point="-59.99615,77.313453"
       end_point="-59.99615,273.83585"
       center_point="-59.99615,175.57465"
       id="path-effect2482-3-3"
       is_visible="true"
       lpeversion="1.2"
       lpesatellites=""
       mode="free"
       discard_orig_path="true"
       fuse_paths="false"
       oposite_fuse="false"
       split_items="false"
       split_open="false"
       link_styles="false" /><inkscape:path-effect
       effect="mirror_symmetry"
       start_point="-59.99615,77.313453"
       end_point="-59.99615,273.83585"
       center_point="-59.99615,175.57465"
       id="path-effect2482-9-6"
       is_visible="true"
       lpeversion="1.2"
       lpesatellites=""
       mode="free"
       discard_orig_path="true"
       fuse_paths="false"
       oposite_fuse="false"
       split_items="false"
       split_open="false"
       link_styles="false" /><inkscape:path-effect
       effect="mirror_symmetry"
       start_point="-59.99615,77.313453"
       end_point="-59.99615,273.83585"
       center_point="-59.99615,175.57465"
       id="path-effect2482-3-3-8"
       is_visible="true"
       lpeversion="1.2"
       lpesatellites=""
       mode="free"
       discard_orig_path="true"
       fuse_paths="false"
       oposite_fuse="false"
       split_items="false"
       split_open="false"
       link_styles="false" /><inkscape:path-effect
       effect="mirror_symmetry"
       start_point="-59.99615,77.313453"
       end_point="-59.99615,273.83585"
       center_point="-59.99615,175.57465"
       id="path-effect2482-7"
       is_visible="true"
       lpeversion="1.2"
       lpesatellites=""
       mode="free"
       discard_orig_path="true"
       fuse_paths="false"
       oposite_fuse="false"
       split_items="false"
       split_open="false"
       link_styles="false" /><inkscape:path-effect
       effect="mirror_symmetry"
       start_point="-59.99615,77.313453"
       end_point="-59.99615,273.83585"
       center_point="-59.99615,175.57465"
       id="path-effect2482-5"
       is_visible="true"
       lpeversion="1.2"
       lpesatellites=""
       mode="free"
       discard_orig_path="true"
       fuse_paths="false"
       oposite_fuse="false"
       split_items="false"
       split_open="false"
       link_styles="false" /><inkscape:path-effect
       effect="mirror_symmetry"
       start_point="-59.99615,77.313453"
       end_point="-59.99615,273.83585"
       center_point="-59.99615,175.57465"
       id="path-effect2482-6"
       is_visible="true"
       lpeversion="1.2"
       lpesatellites=""
       mode="free"
       discard_orig_path="true"
       fuse_paths="false"
       oposite_fuse="false"
       split_items="false"
       split_open="false"
       link_styles="false" /><inkscape:path-effect
       effect="mirror_symmetry"
       start_point="-59.99615,77.313453"
       end_point="-59.99615,273.83585"
       center_point="-59.99615,175.57465"
       id="path-effect2482-8"
       is_visible="true"
       lpeversion="1.2"
       lpesatellites=""
       mode="free"
       discard_orig_path="true"
       fuse_paths="false"
       oposite_fuse="false"
       split_items="false"
       split_open="false"
       link_styles="false" /><inkscape:path-effect
       effect="mirror_symmetry"
       start_point="-59.99615,77.313453"
       end_point="-59.99615,273.83585"
       center_point="-59.99615,175.57465"
       id="path-effect2482-37"
       is_visible="true"
       lpeversion="1.2"
       lpesatellites=""
       mode="free"
       discard_orig_path="true"
       fuse_paths="false"
       oposite_fuse="false"
       split_items="false"
       split_open="false"
       link_styles="false" /><inkscape:path-effect
       effect="mirror_symmetry"
       start_point="-59.99615,77.313453"
       end_point="-59.99615,273.83585"
       center_point="-59.99615,175.57465"
       id="path-effect2482-38"
       is_visible="true"
       lpeversion="1.2"
       lpesatellites=""
       mode="free"
       discard_orig_path="true"
       fuse_paths="false"
       oposite_fuse="false"
       split_items="false"
       split_open="false"
       link_styles="false" /><inkscape:path-effect
       effect="mirror_symmetry"
       start_point="-59.99615,77.313453"
       end_point="-59.99615,273.83585"
       center_point="-59.99615,175.57465"
       id="path-effect2482-4"
       is_visible="true"
       lpeversion="1.2"
       lpesatellites=""
       mode="free"
       discard_orig_path="true"
       fuse_paths="false"
       oposite_fuse="false"
       split_items="false"
       split_open="false"
       link_styles="false" /><inkscape:path-effect
       effect="mirror_symmetry"
       start_point="-59.99615,77.313453"
       end_point="-59.99615,273.83585"
       center_point="-59.99615,175.57465"
       id="path-effect2482-37-8"
       is_visible="true"
       lpeversion="1.2"
       lpesatellites=""
       mode="free"
       discard_orig_path="true"
       fuse_paths="false"
       oposite_fuse="false"
       split_items="false"
       split_open="false"
       link_styles="false" /><inkscape:path-effect
       effect="mirror_symmetry"
       start_point="-59.99615,77.313453"
       end_point="-59.99615,273.83585"
       center_point="-59.99615,175.57465"
       id="path-effect2482-60"
       is_visible="true"
       lpeversion="1.2"
       lpesatellites=""
       mode="free"
       discard_orig_path="true"
       fuse_paths="false"
       oposite_fuse="false"
       split_items="false"
       split_open="false"
       link_styles="false" /><inkscape:path-effect
       effect="mirror_symmetry"
       start_point="-59.99615,77.313453"
       end_point="-59.99615,273.83585"
       center_point="-59.99615,175.57465"
       id="path-effect2482-37-5"
       is_visible="true"
       lpeversion="1.2"
       lpesatellites=""
       mode="free"
       discard_orig_path="true"
       fuse_paths="false"
       oposite_fuse="false"
       split_items="false"
       split_open="false"
       link_styles="false" /><clipPath
       clipPathUnits="userSpaceOnUse"
       id="clipPath13715"><rect
         style="opacity:0.69;fill:#ffc300;fill-opacity:1;stroke:none;stroke-width:2.04824;stroke-dasharray:none"
         id="rect13717"
         width="46.205971"
         height="53.853477"
         x="-444.03125"
         y="251.38074"
         transform="rotate(-24.079558)" /></clipPath><clipPath
       clipPathUnits="userSpaceOnUse"
       id="clipPath13715-4"><rect
         style="opacity:0.69;fill:#ffc300;fill-opacity:1;stroke:none;stroke-width:2.04824;stroke-dasharray:none"
         id="rect13717-7"
         width="46.205971"
         height="53.853477"
         x="-444.03125"
         y="251.38074"
         transform="rotate(-24.079558)" /></clipPath><filter
       style="color-interpolation-filters:sRGB"
       inkscape:label="Blur"
       id="filter13806"
       x="0.011070757"
       y="0.032553595"
       width="0.97893989"
       height="0.93529785"><feGaussianBlur
         stdDeviation="3 3"
         result="blur"
         id="feGaussianBlur13804" /></filter><clipPath
       clipPathUnits="userSpaceOnUse"
       id="clipPath13715-46"><rect
         style="opacity:0.69;fill:#ffc300;fill-opacity:1;stroke:none;stroke-width:2.04824;stroke-dasharray:none"
         id="rect13717-3"
         width="46.205971"
         height="53.853477"
         x="-444.03125"
         y="251.38074"
         transform="rotate(-24.079558)" /></clipPath><clipPath
       clipPathUnits="userSpaceOnUse"
       id="clipPath13715-46-7"><rect
         style="opacity:0.69;fill:#ffc300;fill-opacity:1;stroke:none;stroke-width:2.04824;stroke-dasharray:none"
         id="rect13717-3-2"
         width="46.205971"
         height="53.853477"
         x="-444.03125"
         y="251.38074"
         transform="rotate(-24.079558)" /></clipPath><clipPath
       clipPathUnits="userSpaceOnUse"
       id="clipPath13715-1"><rect
         style="opacity:0.69;fill:#ffc300;fill-opacity:1;stroke:none;stroke-width:2.04824;stroke-dasharray:none"
         id="rect13717-8"
         width="46.205971"
         height="53.853477"
         x="-444.03125"
         y="251.38074"
         transform="rotate(-24.079558)" /></clipPath><clipPath
       clipPathUnits="userSpaceOnUse"
       id="clipPath13715-1-6"><rect
         style="opacity:0.69;fill:#ffc300;fill-opacity:1;stroke:none;stroke-width:2.04824;stroke-dasharray:none"
         id="rect13717-8-6"
         width="46.205971"
         height="53.853477"
         x="-444.03125"
         y="251.38074"
         transform="rotate(-24.079558)" /></clipPath></defs><g
     inkscape:label="Layer 1"
     inkscape:groupmode="layer"
     id="layer1"
     transform="translate(-4062.3812,-1717.5086)"
     style="display:inline"><path
       id="path7704-0-8-2-2-2-8"
       style="color:#000000;display:inline;fill:#fcb131"
       d="m 4352.2956,1870.3543 c -5.6992,0 -11.3109,0.3777 -16.815,1.1002 0.085,1.8619 0.1318,3.734 0.1318,5.6172 0,2.2564 -0.07,4.4959 -0.1912,6.7221 5.5088,-0.7998 11.1414,-1.2206 16.8744,-1.2206 42.3902,0 79.4176,22.6382 99.6844,56.4983 2.4913,1.5629 5.0184,3.1018 7.6067,4.5961 3.7784,2.1815 7.5722,4.2197 11.3704,6.1506 -19.2432,-46.6071 -65.1579,-79.4639 -118.6615,-79.4639 z m -38.7945,5.9908 c -51.872,16.4684 -89.5274,65.0526 -89.5274,122.3316 0,70.7982 57.5238,128.3219 128.3219,128.3219 57.5483,0 106.3253,-38.0074 122.5672,-90.2571 -3.8161,-1.4619 -7.5263,-3.2683 -11.1171,-5.3976 -14.0877,48.2538 -58.602,83.4383 -111.4501,83.4383 -64.1949,0 -116.105,-51.9107 -116.105,-116.1055 0,-50.3312 31.9121,-93.1055 76.634,-109.2352 0.4518,-4.0597 0.6863,-8.1866 0.6863,-12.3698 0,-0.243 -0.01,-0.484 -0.01,-0.7266 z m 166.8668,114.4308 c -4.0636,0.9824 -8.097,1.8357 -12.0954,2.56 0.08,1.7707 0.1266,3.5501 0.1266,5.3408 0,2.7074 -0.1,5.391 -0.2816,8.0517 3.7712,3.0142 7.643,5.4438 11.5827,7.2771 0.6003,-5.0276 0.9178,-10.1413 0.9178,-15.3288 0,-2.6539 -0.091,-5.2866 -0.2501,-7.9008 z" /><path
       id="path7704-2-0-0-8-2-7-4"
       style="color:#000000;display:inline;fill:#0081c8;fill-opacity:1"
       d="m 4183.1129,1729.7841 -18.2129,27.773 c -17.7515,5.6708 -33.8145,15.139 -47.2302,27.4511 l -34.8681,1.9833 -20.4205,35.3694 16.3277,32.4016 c -1.4738,7.7338 -2.2546,15.7111 -2.2546,23.8699 0,8.1335 0.7758,16.0873 2.2407,23.7986 l -16.3138,32.3747 20.4205,35.3694 34.7544,1.9772 c 13.4476,12.3717 29.5633,21.883 47.3791,27.5688 l 18.1777,27.7193 h 38.6544 c -1.829,-8.7854 -2.7941,-17.8834 -2.7941,-27.203 0,-2.581 0.078,-5.1438 0.2238,-7.6889 -5.1215,0.6956 -10.3482,1.0624 -15.6626,1.0624 -63.5715,0 -114.977,-51.4071 -114.977,-114.9785 0,-63.5714 51.4055,-114.9764 114.977,-114.9764 63.5714,0 114.9764,51.405 114.9764,114.9764 0,50.0837 -31.91,92.6094 -76.5349,108.4032 -0.5096,4.3296 -0.786,8.7321 -0.786,13.2018 0,0.3015 0.01,0.6008 0.011,0.9017 l 0.9297,-1.4174 c 17.8168,-5.6859 33.9333,-15.198 47.3811,-27.5704 l 34.741,-1.9762 20.4205,-35.3694 -16.3055,-32.3572 c 1.467,-7.7168 2.2443,-15.6764 2.2443,-23.8161 0,-8.1648 -0.7819,-16.1479 -2.2577,-23.8869 l 16.3189,-32.3846 -20.4205,-35.3689 -34.8547,-1.9833 c -13.416,-12.3128 -29.4795,-21.7813 -47.2318,-27.4521 l -18.2123,-27.7725 z" /><path
       id="path293-6-6-7-8-1-8-1-2-0"
       style="color:#000000;display:inline;fill:#000000"
       d="m 4495.3303,1717.5086 c -26.285,0 -49.368,17.6255 -65.9014,44.6045 -31.6308,0.8288 -58.436,12.0066 -71.5785,34.7699 -11.3035,19.5782 -10.1225,43.6235 0.032,67.661 8.7517,0.5307 17.2741,1.9205 25.494,4.067 5.4347,-7.7861 11.8726,-15.5402 19.2237,-23.0834 -1.0802,9.3931 -1.6566,19.086 -1.7193,28.99 4.4175,1.8432 8.7156,3.9149 12.8788,6.2053 -0.026,-1.4851 -0.05,-2.9705 -0.05,-4.4664 0,-15.6408 1.4111,-30.7036 3.9957,-44.8185 10.9313,-9.2955 23.2699,-18.0486 36.8148,-25.8687 13.5446,-7.82 27.2944,-14.1292 40.8099,-18.9482 13.5163,4.8192 27.267,11.1284 40.8125,18.9487 13.5445,7.8199 25.8825,16.5727 36.8132,25.8677 2.5847,14.1151 3.9957,29.178 3.9957,44.819 0,15.6399 -1.4109,30.7017 -3.9951,44.8153 -6.3669,5.4141 -13.2249,10.6362 -20.5068,15.6053 -6.6842,7.8152 -11.9021,16.0993 -15.704,24.646 1.944,-1.0602 3.8868,-2.1343 5.8235,-3.2525 9.1029,-5.2556 17.6973,-10.9109 25.7369,-16.8729 -3.7914,13.4525 -8.7064,25.7025 -14.4937,36.3472 -7.0408,-0.1804 -14.4115,-0.9039 -22.0038,-2.1405 -1.0914,4.193 -1.8684,8.4198 -2.3301,12.6587 5.6456,0.9221 11.2081,1.5974 16.6434,1.9787 -5.0979,7.2997 -10.6342,13.4389 -16.4817,18.3534 0.5858,4.6886 1.5618,9.3573 2.9208,13.9774 10.8692,-7.757 20.5601,-18.7342 28.6716,-31.9706 31.6315,-0.8285 58.4386,-12.0053 71.5812,-34.769 13.1426,-22.7635 9.4183,-51.5675 -5.6797,-79.3755 15.0983,-27.8082 18.8209,-56.6116 5.6781,-79.3755 -13.1428,-22.7642 -39.9489,-33.9422 -71.5811,-34.7705 -16.5333,-26.9781 -39.6158,-44.6028 -65.9004,-44.6029 z m 0,12.8539 c 18.6579,0 36.4361,11.5507 50.7907,32.1045 -16.1242,1.1315 -33.297,4.6466 -50.7896,10.5234 -17.4935,-5.8766 -34.667,-9.3916 -50.7918,-10.5228 14.3548,-20.5543 32.1327,-32.1051 50.7907,-32.1051 z m -58.4817,44.6009 c 12.1126,0.3102 25.1798,2.1793 38.7264,5.6224 -9.1833,3.9817 -18.3783,8.5971 -27.4816,13.8529 -9.1034,5.2558 -17.6984,10.9112 -25.7384,16.8734 3.7915,-13.4531 8.7062,-25.7038 14.4936,-36.3487 z m 116.9629,0 c 5.7873,10.6443 10.7017,22.8944 14.4932,36.3467 -8.0388,-5.9613 -16.6323,-11.6157 -25.7343,-16.8708 -9.1036,-5.2559 -18.2994,-9.8718 -27.4831,-13.8535 13.5459,-3.4429 26.6122,-5.3119 38.7242,-5.6224 z m -131.6302,0.4109 c -7.0826,14.53 -12.6252,31.16 -16.2822,49.2481 -13.8359,12.2107 -25.4669,25.325 -34.509,38.7232 -10.6228,-22.7083 -11.7371,-43.8794 -2.4081,-60.0376 9.3291,-16.1585 28.2212,-25.7794 53.1993,-27.9337 z m 146.2981,0 c 24.9785,2.1544 43.87,11.7759 53.1993,27.9347 9.3292,16.1587 8.2158,37.3297 -2.4076,60.0387 -9.0421,-13.3992 -20.6728,-26.5142 -34.509,-38.7258 -3.6575,-18.0878 -9.2,-34.7178 -16.2827,-49.2476 z m 19.5838,70.1533 c 9.7542,10.0096 17.9057,20.3907 24.2306,30.7248 -6.3248,10.3338 -14.4763,20.7151 -24.2306,30.7247 1.1433,-9.9428 1.7435,-20.2126 1.7435,-30.7232 0,-10.5116 -0.6,-20.7823 -1.7435,-30.7263 z m -229.709,41.32 c -10.5959,24.4104 -11.9848,48.9014 -0.5054,68.7844 13.1426,22.7637 39.9483,33.9412 71.5796,34.77 16.5334,26.9794 39.6166,44.6067 65.9019,44.6066 6.0411,0 11.9104,-0.9415 17.5726,-2.7032 -1.3755,-4.095 -2.5088,-8.2372 -3.392,-12.4132 -4.6401,1.4854 -9.3807,2.2556 -14.1806,2.2556 -18.6583,0 -36.4363,-11.5511 -50.7912,-32.106 16.1246,-1.1313 33.2975,-4.6464 50.7907,-10.5229 4.277,1.4368 8.534,2.7278 12.762,3.8819 1.1396,-8.5857 3.3187,-17.0814 6.5071,-25.354 -6.4444,2.9444 -12.8834,5.5655 -19.2696,7.8425 -13.5148,-4.8189 -27.2635,-11.1273 -40.8078,-18.9472 -13.5457,-7.8205 -25.8852,-16.5748 -36.8169,-25.8708 -0.773,-4.2215 -1.4267,-8.5374 -1.9833,-12.9186 -4.3883,-3.2382 -9.0279,-6.1554 -13.8793,-8.7292 0.2178,2.5389 0.4703,5.0588 0.7576,7.5577 -3.9674,-4.0711 -7.6544,-8.2054 -11.0763,-12.3713 -10.3631,-4.1948 -21.5098,-6.8727 -33.1691,-7.7623 z m 13.0359,2.3125 c 9.0421,13.3993 20.6726,26.515 34.509,38.7268 3.657,18.0879 9.199,34.7176 16.2817,49.2477 -24.978,-2.1546 -43.8696,-11.7763 -53.1988,-27.9348 -9.3294,-16.1588 -8.2157,-37.3303 2.4081,-60.0397 z m 247.881,0 c 10.6238,22.7092 11.7384,43.8812 2.4092,60.0397 -9.3292,16.1586 -28.222,25.7794 -53.2004,27.9337 7.083,-14.5304 12.6258,-31.1604 16.2832,-49.2486 13.8358,-12.2112 25.4661,-25.3262 34.508,-38.7248 z m -196.9161,52.0371 c 8.0401,5.9625 16.6348,11.6186 25.7384,16.8744 9.1026,5.2554 18.297,9.8701 27.4795,13.8514 -13.546,3.4428 -26.6122,5.3115 -38.7243,5.6219 -5.7873,-10.6448 -10.7022,-22.895 -14.4936,-36.3477 z" /><path
       id="path17890-7-59-7-2-8"
       style="color:#000000;display:inline;fill:#00a651"
       d="m 4705.0689,1864.9869 c -21.0323,-0.069 -40.3694,1.6673 -58.0177,4.9113 -3.3639,-0.6222 -6.8106,-1.1694 -10.2986,-1.6784 -1.1896,2.7085 -2.4825,5.4081 -3.8762,8.0925 1.3523,2.6047 2.6105,5.2241 3.7708,7.8517 3.3814,-0.806 6.8245,-1.564 10.3617,-2.2464 32.2822,6.2609 58.0231,17.8531 77.3043,32.5107 25.8339,19.639 40.1809,44.6749 43.6041,70.3797 l 12.4932,7.213 c -1.5447,-32.0344 -18.1037,-63.5451 -48.951,-86.9952 -14.5987,-11.0979 -32.3789,-20.407 -53.2799,-27.2536 8.5854,-0.6683 17.5319,-1.0071 26.8521,-0.9767 z m -110.3209,0.032 c 0.1537,3.7295 0.2398,7.49 0.2398,11.2851 0,0.1735 0,0.3455 0,0.5189 3.7178,0.048 7.3573,0.1725 10.9533,0.3379 0.1868,-0.2863 0.3784,-0.5726 0.5622,-0.8588 -2.3991,-3.7348 -5.0679,-7.4758 -7.9587,-11.2076 -1.261,-0.029 -2.5187,-0.06 -3.7925,-0.076 z m 7.3902,17.6899 c -2.4928,1.0046 -4.9348,2.0461 -7.3261,3.1239 -0.079,2.2501 -0.1786,4.4911 -0.3091,6.7174 2.7295,-3.271 5.2756,-6.555 7.6352,-9.8413 z m -31.0492,16.0146 c -3.4032,2.2124 -6.6705,4.5072 -9.7839,6.8879 -32.3917,24.7677 -48.9938,58.3618 -48.9707,92.0528 0.023,33.6908 16.674,67.2243 49.0823,91.861 14.5986,11.0979 32.3785,20.4076 53.2794,27.2542 -8.5852,0.6683 -17.5321,1.0071 -26.8521,0.9767 l -0.037,11.8086 c 21.032,0.069 40.3685,-1.6674 58.0166,-4.9114 17.9854,3.3271 37.745,5.0636 59.2703,4.9036 l -0.088,-11.8086 c -9.7007,0.072 -19.0003,-0.2563 -27.9058,-0.9451 21.4272,-6.9691 39.6028,-16.4955 54.4701,-27.8635 25.8058,-19.7318 41.5781,-45.0674 46.918,-71.5894 l -10.8499,-6.2642 c -3.8768,24.984 -18.1159,49.2609 -43.2418,68.4728 -19.5153,14.922 -45.6563,26.7333 -78.5312,33.075 -32.2815,-6.2604 -58.0218,-17.8512 -77.3027,-32.5086 -29.873,-22.7094 -44.3996,-52.6368 -44.4201,-82.4689 -0.015,-22.1677 7.9883,-44.4222 24.3531,-63.7661 v -0.4207 c 0.2923,-0.1977 0.5798,-0.3986 0.8707,-0.5973 5.4669,-6.314 11.8288,-12.3111 19.112,-17.8801 0.2045,-0.1563 0.4204,-0.3073 0.6263,-0.463 0.818,-5.1582 1.4866,-10.4296 1.9839,-15.8057 z" /><path
       id="path12187-5-0-7-5-6-1"
       style="color:#000000;display:inline;fill:#ee334e;stroke-width:0.0915699"
       d="m 4793.8203,1729.3607 -126.0249,72.7604 v 59.3112 c 4.2192,-0.4459 8.5183,-0.8123 12.8974,-1.0966 v -50.769 l 113.1275,-65.3139 113.128,65.3139 v 130.6287 l -113.128,65.3144 -113.1275,-65.3144 v -43.8418 c -4.1414,-1.566 -8.431,-3.0364 -12.8974,-4.3842 v 55.6721 l 126.0249,72.7604 3.2246,-1.8614 122.8002,-70.899 v -145.5204 z m 4.3428,30.808 -4.9593,8.5917 92.8284,53.5957 4.9609,-8.5917 z m -105.8576,61.1172 v 38.4958 c 3.2644,-0.1 6.5733,-0.1527 9.9219,-0.1623 v -38.3335 z m 9.9219,60.1736 c -0.309,0.01 -0.6184,0.013 -0.9328,0.015 0.3147,0.1448 0.6197,0.2968 0.9328,0.4428 z m -9.9219,19.7357 v 27.28 h 9.9219 v -22.3108 c -3.1776,-1.7292 -6.484,-3.3878 -9.9219,-4.9692 z m 193.7267,26.2124 -92.8284,53.5931 4.9593,8.5917 92.83,-53.5936 z" /></g></svg>
